<svg id="Layer_1" data-name="Layer 1" xmlns="http://www.w3.org/2000/svg" xmlns:xlink="http://www.w3.org/1999/xlink" viewBox="0 0 143.54 39.99"><defs><style>.cls-1{fill:none;}.cls-2{clip-path:url(#clip-path);}.cls-3{opacity:0.8;}.cls-4{clip-path:url(#clip-path-2);}.cls-5{fill:#dfdfde;}.cls-6{opacity:0.6;}.cls-7{clip-path:url(#clip-path-3);}.cls-8{clip-path:url(#clip-path-4);}.cls-9{clip-path:url(#clip-path-5);}.cls-10{clip-path:url(#clip-path-6);}.cls-11{clip-path:url(#clip-path-7);}</style><clipPath id="clip-path" transform="translate(0 -0.01)"><rect class="cls-1" width="144" height="40"/></clipPath><clipPath id="clip-path-2" transform="translate(0 -0.01)"><rect class="cls-1" y="4.56" width="35.22" height="35.44"/></clipPath><clipPath id="clip-path-3" transform="translate(0 -0.01)"><rect class="cls-1" x="18.84" width="10.63" height="10.68"/></clipPath><clipPath id="clip-path-4" transform="translate(0 -0.01)"><rect class="cls-1" x="23.43" y="2.58" width="16.6" height="16.74"/></clipPath><clipPath id="clip-path-5" transform="translate(0 -0.01)"><rect class="cls-1" x="18.15" y="14.56" width="3.86" height="2"/></clipPath><clipPath id="clip-path-6" transform="translate(0 -0.01)"><rect class="cls-1" x="12.72" y="14.56" width="3.86" height="2"/></clipPath><clipPath id="clip-path-7" transform="translate(0 -0.01)"><rect class="cls-1" x="13.38" y="17.95" width="9.11" height="4.08"/></clipPath></defs><g class="cls-2"><g id="Group_201" data-name="Group 201"><g id="Group_185" data-name="Group 185" class="cls-3"><g id="Group_184" data-name="Group 184"><g class="cls-4"><g id="Group_183" data-name="Group 183"><path id="Path_158" data-name="Path 158" class="cls-5" d="M17.61,4.56h0a17.72,17.72,0,1,0,17.6,17.72h0A17.67,17.67,0,0,0,17.61,4.56m9,19.42c-.3.83-.77,3.29-1.48,5.72s-1.63,4.95-3.3,6.25a.72.72,0,0,1-.42.15,7,7,0,0,1-1-.05,1.18,1.18,0,0,1-.54-.2,1.25,1.25,0,0,1-.44-.92,26.92,26.92,0,0,0-.67-6A8.17,8.17,0,0,0,18,27c-.24-.41-.38-.45-.39-.45s-.16,0-.39.45a7.9,7.9,0,0,0-.7,1.94,26.94,26.94,0,0,0-.67,6,1.25,1.25,0,0,1-.45.91,1.14,1.14,0,0,1-.54.2,4.92,4.92,0,0,1-1,.05.63.63,0,0,1-.41-.15c-1.68-1.3-2.59-3.82-3.3-6.25S9,24.81,8.65,24A17.5,17.5,0,0,1,7.4,16a7.08,7.08,0,0,1,2.37-4.76A5.36,5.36,0,0,1,12.85,10h.3a6.69,6.69,0,0,1,4.46,1.74c2.35-2.06,5.57-2.37,7.84-.51A7.12,7.12,0,0,1,27.82,16a17.81,17.81,0,0,1-1.25,8" transform="translate(0 -0.01)"/></g></g></g></g><g id="Group_188" data-name="Group 188" class="cls-6"><g id="Group_187" data-name="Group 187"><g class="cls-7"><g id="Group_186" data-name="Group 186"><path id="Path_159" data-name="Path 159" class="cls-5" d="M29,3.06A5.3,5.3,0,0,0,21.88.52,5.37,5.37,0,0,0,21.57,10a5.55,5.55,0,0,1,1.86.17,5,5,0,0,1,1.18.48,5.33,5.33,0,0,0,4.84-5.77A5.19,5.19,0,0,0,29,3.06" transform="translate(0 -0.01)"/></g></g></g></g><path id="Path_160" data-name="Path 160" class="cls-5" d="M55,11.71a.41.41,0,0,1-.07.22l-4.76,6.69H55v.46H49.43v-.2a.3.3,0,0,1,0-.1l0-.09L54.27,12h-4.7v-.46H55Z" transform="translate(0 -0.01)"/><path id="Path_161" data-name="Path 161" class="cls-5" d="M56.06,14.52a3.17,3.17,0,0,1,.87-.63,2.49,2.49,0,0,1,1-.22,2.11,2.11,0,0,1,.74.14,1.55,1.55,0,0,1,.53.39,1.76,1.76,0,0,1,.31.61,3.22,3.22,0,0,1,.11.81v3.46h-.21a.18.18,0,0,1-.19-.15l-.08-.69a4,4,0,0,1-.43.39,2.66,2.66,0,0,1-.45.29,2.3,2.3,0,0,1-.5.18,2.88,2.88,0,0,1-.59.06,1.59,1.59,0,0,1-.53-.08,1.31,1.31,0,0,1-.45-.24,1.13,1.13,0,0,1-.32-.43,1.43,1.43,0,0,1-.12-.62,1.13,1.13,0,0,1,.19-.62,1.64,1.64,0,0,1,.6-.51,4.16,4.16,0,0,1,1.05-.34,9.79,9.79,0,0,1,1.53-.15v-.55a1.79,1.79,0,0,0-.31-1.14,1.12,1.12,0,0,0-.94-.39,1.8,1.8,0,0,0-.65.1,2,2,0,0,0-.45.24,2.37,2.37,0,0,0-.3.23.33.33,0,0,1-.2.11.19.19,0,0,1-.1,0l-.06-.07Zm3.1,2a9.38,9.38,0,0,0-1.29.12,4,4,0,0,0-.9.25,1.4,1.4,0,0,0-.52.38.75.75,0,0,0-.17.51.93.93,0,0,0,.09.46.9.9,0,0,0,.23.32.89.89,0,0,0,.33.18,1.39,1.39,0,0,0,.4.06,2.21,2.21,0,0,0,.57-.06,2.72,2.72,0,0,0,.47-.19,2.42,2.42,0,0,0,.42-.29l.37-.35Z" transform="translate(0 -0.01)"/><path id="Path_162" data-name="Path 162" class="cls-5" d="M61.79,14.66a2.86,2.86,0,0,1,.84-.71,2.13,2.13,0,0,1,1-.27,2.06,2.06,0,0,1,.77.14,1.45,1.45,0,0,1,.55.4,1.71,1.71,0,0,1,.32.63,2.92,2.92,0,0,1,.12.83v3.4h-.51v-3.4a1.89,1.89,0,0,0-.34-1.17,1.24,1.24,0,0,0-1-.42,1.89,1.89,0,0,0-1,.26,2.82,2.82,0,0,0-.8.74v4h-.51V11.31h.51Z" transform="translate(0 -0.01)"/><path id="Path_163" data-name="Path 163" class="cls-5" d="M67.54,14.7a3,3,0,0,1,.85-.74,2.09,2.09,0,0,1,1.07-.28,2,2,0,0,1,.76.14,1.37,1.37,0,0,1,.55.4,1.81,1.81,0,0,1,.33.63,2.6,2.6,0,0,1,.11.83v3.4H70.7v-3.4a1.75,1.75,0,0,0-.34-1.17,1.23,1.23,0,0,0-1-.42,1.89,1.89,0,0,0-1,.26,2.58,2.58,0,0,0-.8.74v4h-.51V13.77h.28a.12.12,0,0,1,.15.12h0Z" transform="translate(0 -0.01)"/><path id="Path_164" data-name="Path 164" class="cls-5" d="M72.8,14.52a3.33,3.33,0,0,1,.87-.63,2.49,2.49,0,0,1,1-.22,2.07,2.07,0,0,1,.74.14,1.38,1.38,0,0,1,.53.39,1.76,1.76,0,0,1,.31.61,2.82,2.82,0,0,1,.11.81v3.46h-.2a.19.19,0,0,1-.2-.15l-.07-.69a4.09,4.09,0,0,1-.44.39,2.23,2.23,0,0,1-.44.29,2.21,2.21,0,0,1-.51.18,2.88,2.88,0,0,1-.59.06,1.59,1.59,0,0,1-.53-.08,1.31,1.31,0,0,1-.45-.24,1.13,1.13,0,0,1-.32-.43,1.59,1.59,0,0,1-.12-.62,1.13,1.13,0,0,1,.19-.62,1.64,1.64,0,0,1,.6-.51,4.3,4.3,0,0,1,1.05-.34,9.92,9.92,0,0,1,1.54-.15v-.55a1.87,1.87,0,0,0-.32-1.14,1.12,1.12,0,0,0-.94-.39,1.8,1.8,0,0,0-.65.1,2.17,2.17,0,0,0-.45.24,3.4,3.4,0,0,0-.3.23.31.31,0,0,1-.2.11l-.09,0a.23.23,0,0,1-.07-.07Zm3.11,2a9.38,9.38,0,0,0-1.3.12,4,4,0,0,0-.9.25,1.4,1.4,0,0,0-.52.38.87.87,0,0,0-.17.51,1.22,1.22,0,0,0,.09.46.9.9,0,0,0,.23.32.75.75,0,0,0,.34.18,1.32,1.32,0,0,0,.39.06,2.17,2.17,0,0,0,.57-.06,2.53,2.53,0,0,0,.48-.19,2.78,2.78,0,0,0,.41-.29c.13-.11.25-.23.37-.35Z" transform="translate(0 -0.01)"/><path id="Path_165" data-name="Path 165" class="cls-5" d="M78.22,15.05a3.06,3.06,0,0,1,.27-.58,1.87,1.87,0,0,1,.36-.43,1.43,1.43,0,0,1,.46-.27,1.54,1.54,0,0,1,.56-.1,3.16,3.16,0,0,1,.32,0,.86.86,0,0,1,.28.11l0,.35a.1.1,0,0,1-.1.08.58.58,0,0,1-.19,0,1,1,0,0,0-.35,0,1.28,1.28,0,0,0-.54.09,1.19,1.19,0,0,0-.42.28,1.62,1.62,0,0,0-.33.46,3.9,3.9,0,0,0-.26.64v3.43h-.51v-5.3H78a.19.19,0,0,1,.13,0,.35.35,0,0,1,.05.13Z" transform="translate(0 -0.01)"/><path id="Path_166" data-name="Path 166" class="cls-5" d="M85.06,13.77V14a.25.25,0,0,1-.07.2l-3.3,4.5h3.24v.4H81.08v-.21a.27.27,0,0,1,.08-.19l3.31-4.51H81.25v-.4Z" transform="translate(0 -0.01)"/><path id="Path_167" data-name="Path 167" class="cls-5" d="M88,19.16a1.11,1.11,0,0,1-.83-.3,1.24,1.24,0,0,1-.3-.92V14.31h-.76a.19.19,0,0,1-.1,0,.1.1,0,0,1,0-.09V14l.9-.06L87,12a.22.22,0,0,1,0-.08.1.1,0,0,1,.09,0h.24v2h1.66v.38H87.42v3.6a1,1,0,0,0,0,.38.8.8,0,0,0,.16.26.61.61,0,0,0,.23.15.93.93,0,0,0,.29.05.87.87,0,0,0,.32-.06,1.34,1.34,0,0,0,.24-.12,1.09,1.09,0,0,0,.17-.13.12.12,0,0,1,.1-.05.1.1,0,0,1,.08.05l.14.22a1.55,1.55,0,0,1-.51.37,1.74,1.74,0,0,1-.64.13" transform="translate(0 -0.01)"/><path id="Path_168" data-name="Path 168" class="cls-5" d="M90.84,14.72a2.7,2.7,0,0,1,.82-.76,2.05,2.05,0,0,1,1-.29,1.89,1.89,0,0,1,1.52.68,3.27,3.27,0,0,1,.54,2,4,4,0,0,1-.15,1.08,2.62,2.62,0,0,1-.45.88,2.15,2.15,0,0,1-.72.58,2.23,2.23,0,0,1-1,.22,1.89,1.89,0,0,1-1.61-.78V21h-.51V13.77h.28a.14.14,0,0,1,.16.12h0Zm0,3.2a2.37,2.37,0,0,0,.32.39,2,2,0,0,0,.35.25,1.19,1.19,0,0,0,.4.14,2.2,2.2,0,0,0,.44.05,2,2,0,0,0,.82-.18,1.61,1.61,0,0,0,.59-.48,2.24,2.24,0,0,0,.35-.75,3.81,3.81,0,0,0,.12-.95,2.83,2.83,0,0,0-.43-1.75,1.51,1.51,0,0,0-1.25-.55,1.67,1.67,0,0,0-.95.27,2.75,2.75,0,0,0-.76.76Z" transform="translate(0 -0.01)"/><path id="Path_169" data-name="Path 169" class="cls-5" d="M96.63,15.05a3.06,3.06,0,0,1,.27-.58,1.87,1.87,0,0,1,.36-.43,1.43,1.43,0,0,1,.46-.27,1.54,1.54,0,0,1,.56-.1,3.16,3.16,0,0,1,.32,0,1,1,0,0,1,.29.11l0,.35a.11.11,0,0,1-.1.09l-.19,0a1.32,1.32,0,0,0-.34,0,1.48,1.48,0,0,0-.55.09,1.19,1.19,0,0,0-.42.28,1.62,1.62,0,0,0-.33.46,5,5,0,0,0-.26.64v3.43h-.51v-5.3h.27a.19.19,0,0,1,.13,0,.24.24,0,0,1,0,.13Z" transform="translate(0 -0.01)"/><path id="Path_170" data-name="Path 170" class="cls-5" d="M99.69,14.52a3.17,3.17,0,0,1,.87-.63,2.49,2.49,0,0,1,1-.22,2.11,2.11,0,0,1,.74.14,1.55,1.55,0,0,1,.53.39,1.76,1.76,0,0,1,.31.61,2.82,2.82,0,0,1,.11.81v3.46h-.2a.19.19,0,0,1-.2-.15l-.07-.69a5.34,5.34,0,0,1-.44.39,3,3,0,0,1-.44.29,2.38,2.38,0,0,1-.51.18,2.88,2.88,0,0,1-.59.06,1.59,1.59,0,0,1-.53-.08,1.31,1.31,0,0,1-.45-.24,1.13,1.13,0,0,1-.32-.43,1.43,1.43,0,0,1-.12-.62,1.13,1.13,0,0,1,.19-.62,1.64,1.64,0,0,1,.6-.51,4.16,4.16,0,0,1,1.05-.34,9.79,9.79,0,0,1,1.53-.15v-.55a1.79,1.79,0,0,0-.31-1.14,1.12,1.12,0,0,0-.94-.39,1.8,1.8,0,0,0-.65.1,2,2,0,0,0-.45.24,2.37,2.37,0,0,0-.3.23.33.33,0,0,1-.2.11.19.19,0,0,1-.1,0l-.06-.07Zm3.1,2a9.38,9.38,0,0,0-1.29.12,4,4,0,0,0-.9.25,1.4,1.4,0,0,0-.52.38.87.87,0,0,0-.17.51.93.93,0,0,0,.09.46.9.9,0,0,0,.23.32.77.77,0,0,0,.33.18,1.39,1.39,0,0,0,.4.06,2.21,2.21,0,0,0,.57-.06,2.72,2.72,0,0,0,.47-.19,2.42,2.42,0,0,0,.42-.29l.37-.35Z" transform="translate(0 -0.01)"/><path id="Path_171" data-name="Path 171" class="cls-5" d="M109,19.08h-.49a.16.16,0,0,1-.11,0,.22.22,0,0,1-.07-.09l-1.6-2.35a.64.64,0,0,1-.08.19l-1.53,2.16A.24.24,0,0,1,105,19a.12.12,0,0,1-.1,0h-.46l1.92-2.72-1.84-2.59H105a.11.11,0,0,1,.11,0,.13.13,0,0,1,.06.07l1.55,2.25a.36.36,0,0,1,0-.09l0-.1,1.45-2a.24.24,0,0,1,.06-.08.13.13,0,0,1,.1,0h.46l-1.84,2.56Z" transform="translate(0 -0.01)"/><path id="Path_172" data-name="Path 172" class="cls-5" d="M110.85,11.93a.34.34,0,0,1,0,.18.56.56,0,0,1-.1.15.65.65,0,0,1-.15.1.45.45,0,0,1-.36,0,.46.46,0,0,1-.25-.25.34.34,0,0,1,0-.18.47.47,0,0,1,.29-.43.45.45,0,0,1,.36,0,.65.65,0,0,1,.15.1.56.56,0,0,1,.1.15.39.39,0,0,1,0,.18m-.22,7.15h-.5V13.77h.5Z" transform="translate(0 -0.01)"/><path id="Path_173" data-name="Path 173" class="cls-5" d="M115.33,14.42a.13.13,0,0,1-.12.08.26.26,0,0,1-.15-.07l-.24-.15a2.5,2.5,0,0,0-.38-.15,1.63,1.63,0,0,0-.54-.06,1.32,1.32,0,0,0-.52.08,1.2,1.2,0,0,0-.4.22,1,1,0,0,0-.26.32.89.89,0,0,0-.09.39.64.64,0,0,0,.13.42,1.12,1.12,0,0,0,.33.28,2.46,2.46,0,0,0,.47.2l.54.17.53.19a2,2,0,0,1,.47.26,1.1,1.1,0,0,1,.33.38,1.05,1.05,0,0,1,.13.54,1.75,1.75,0,0,1-.12.65,1.43,1.43,0,0,1-.36.52,1.62,1.62,0,0,1-.58.34,2.12,2.12,0,0,1-.79.13,2.28,2.28,0,0,1-1-.18,2.6,2.6,0,0,1-.72-.46l.12-.19a.17.17,0,0,1,.06-.06.15.15,0,0,1,.09,0,.38.38,0,0,1,.17.08,2.48,2.48,0,0,0,.26.19,2.87,2.87,0,0,0,.4.18,2.08,2.08,0,0,0,.6.09,1.7,1.7,0,0,0,.59-.1,1.12,1.12,0,0,0,.42-.25.92.92,0,0,0,.26-.38,1.17,1.17,0,0,0,.09-.45.69.69,0,0,0-.13-.44.94.94,0,0,0-.33-.3,2.18,2.18,0,0,0-.47-.21l-.54-.17-.54-.19a2,2,0,0,1-.47-.26,1.46,1.46,0,0,1-.33-.37,1.17,1.17,0,0,1-.13-.55,1.3,1.3,0,0,1,.12-.55,1.5,1.5,0,0,1,.9-.77,1.84,1.84,0,0,1,.73-.12,2.32,2.32,0,0,1,.86.14,2,2,0,0,1,.68.43Z" transform="translate(0 -0.01)"/><path id="Path_174" data-name="Path 174" class="cls-5" d="M58.51,29.12a5.62,5.62,0,0,1-.37,2.07,4.78,4.78,0,0,1-1.06,1.63,4.51,4.51,0,0,1-1.63,1.06,5.72,5.72,0,0,1-2.12.38h-3.9V24h3.9a5.72,5.72,0,0,1,2.12.38A4.69,4.69,0,0,1,58.14,27a5.67,5.67,0,0,1,.37,2.08m-1.95,0a5,5,0,0,0-.22-1.53,3.27,3.27,0,0,0-.65-1.13,2.71,2.71,0,0,0-1-.72,3.4,3.4,0,0,0-1.34-.25h-2v7.25h2a3.4,3.4,0,0,0,1.34-.25,2.71,2.71,0,0,0,1-.72,3.23,3.23,0,0,0,.65-1.14,4.84,4.84,0,0,0,.22-1.51" transform="translate(0 -0.01)"/><path id="Path_175" data-name="Path 175" class="cls-5" d="M61.49,28.23a3.14,3.14,0,0,1,.81-1,1.69,1.69,0,0,1,1.1-.38,1.43,1.43,0,0,1,.81.22l-.12,1.32a.32.32,0,0,1-.1.18.3.3,0,0,1-.18.06l-.31,0a2.85,2.85,0,0,0-.41,0,1.54,1.54,0,0,0-.52.09,1.47,1.47,0,0,0-.4.24,1.66,1.66,0,0,0-.32.39,3.6,3.6,0,0,0-.26.52v4.5H59.84V27h1a.42.42,0,0,1,.5.32.25.25,0,0,1,0,.12Z" transform="translate(0 -0.01)"/><path id="Path_176" data-name="Path 176" class="cls-5" d="M64,33.29a1.08,1.08,0,0,1,.3-.76,1.08,1.08,0,0,1,.76-.31,1.16,1.16,0,0,1,.76.31,1,1,0,0,1,.23.35,1,1,0,0,1-.23,1.18,1,1,0,0,1-.34.22,1,1,0,0,1-.42.08,1,1,0,0,1-.42-.08,1,1,0,0,1-.34-.22,1,1,0,0,1-.22-.34,1.06,1.06,0,0,1-.09-.42" transform="translate(0 -0.01)"/><path id="Path_177" data-name="Path 177" class="cls-5" d="M72.41,28.28h.45a1.18,1.18,0,0,0,.45-.07.78.78,0,0,0,.3-.24l2.82-3.59a1,1,0,0,1,.37-.32,1.07,1.07,0,0,1,.49-.09h1.65l-3.45,4.28a1.85,1.85,0,0,1-.63.55,1.58,1.58,0,0,1,.42.24,2,2,0,0,1,.36.4l3.55,4.82H77.51a1.08,1.08,0,0,1-.5-.09.78.78,0,0,1-.28-.29l-2.89-3.8a.89.89,0,0,0-.31-.27,1.51,1.51,0,0,0-.51-.08h-.6v4.53H70.51V24h1.91Z" transform="translate(0 -0.01)"/><path id="Path_178" data-name="Path 178" class="cls-5" d="M79.68,28a4.32,4.32,0,0,1,3-1.15,2.94,2.94,0,0,1,1.13.21,2.29,2.29,0,0,1,.85.59,2.37,2.37,0,0,1,.53.89,3.63,3.63,0,0,1,.18,1.14v4.61H84.6a.83.83,0,0,1-.38-.07.5.5,0,0,1-.22-.31l-.15-.52a5.66,5.66,0,0,1-.54.43,3,3,0,0,1-.54.32,2.92,2.92,0,0,1-1.32.26,2.73,2.73,0,0,1-.85-.12,2,2,0,0,1-.67-.37,1.8,1.8,0,0,1-.44-.62,2.14,2.14,0,0,1-.15-.86,1.77,1.77,0,0,1,.09-.56,1.81,1.81,0,0,1,.3-.52,2.68,2.68,0,0,1,.54-.47,3.59,3.59,0,0,1,.82-.38,7.3,7.3,0,0,1,1.12-.27,10.43,10.43,0,0,1,1.48-.13v-.42a1.62,1.62,0,0,0-.31-1.09,1.15,1.15,0,0,0-.9-.35,2.14,2.14,0,0,0-.71.1,3.06,3.06,0,0,0-.49.22l-.38.23a.87.87,0,0,1-.39.1.5.5,0,0,1-.31-.1.83.83,0,0,1-.2-.22Zm4,3.17a10.88,10.88,0,0,0-1.28.13,3.6,3.6,0,0,0-.83.25,1,1,0,0,0-.44.35.76.76,0,0,0-.14.43.8.8,0,0,0,.28.67,1.11,1.11,0,0,0,.71.19,2,2,0,0,0,.93-.19,2.59,2.59,0,0,0,.76-.59Z" transform="translate(0 -0.01)"/><path id="Path_179" data-name="Path 179" class="cls-5" d="M89.29,34.38a1.91,1.91,0,0,1-1.45-.54,2.06,2.06,0,0,1-.51-1.48V28.28h-.74a.37.37,0,0,1-.24-.1.34.34,0,0,1-.1-.27v-.7L87.42,27l.37-2a.42.42,0,0,1,.13-.22.45.45,0,0,1,.26-.08h.9V27H91v1.26H89.08v3.95a.79.79,0,0,0,.17.54.55.55,0,0,0,.45.19.77.77,0,0,0,.27,0l.2-.08.14-.08a.2.2,0,0,1,.13,0,.14.14,0,0,1,.12,0,.38.38,0,0,1,.11.11l.52.86a2.55,2.55,0,0,1-.87.48,3.26,3.26,0,0,1-1,.16" transform="translate(0 -0.01)"/><path id="Path_180" data-name="Path 180" class="cls-5" d="M94.65,27v7.55a3.42,3.42,0,0,1-.12.9,1.87,1.87,0,0,1-.4.73,1.68,1.68,0,0,1-.71.5,2.85,2.85,0,0,1-1.08.18,3.55,3.55,0,0,1-.46,0,3.13,3.13,0,0,1-.44-.1l.06-.95a.25.25,0,0,1,.12-.18,1,1,0,0,1,.35,0,1.3,1.3,0,0,0,.44-.05.66.66,0,0,0,.29-.17.64.64,0,0,0,.15-.31,2,2,0,0,0,.05-.48V27Zm.24-2.13a1.07,1.07,0,0,1-.09.43,1.21,1.21,0,0,1-.24.35,1.16,1.16,0,0,1-.36.23,1.13,1.13,0,0,1-.45.09,1,1,0,0,1-.42-.09,1.1,1.1,0,0,1-.58-.58,1.07,1.07,0,0,1-.09-.43,1.12,1.12,0,0,1,.09-.44A1.16,1.16,0,0,1,93,24a1.15,1.15,0,0,1,.77-.32,1.13,1.13,0,0,1,.45.09,1.16,1.16,0,0,1,.36.23,1.41,1.41,0,0,1,.24.36,1.12,1.12,0,0,1,.09.44" transform="translate(0 -0.01)"/><path id="Path_181" data-name="Path 181" class="cls-5" d="M96.26,28a4.32,4.32,0,0,1,3-1.15,3,3,0,0,1,1.14.21,2.25,2.25,0,0,1,.84.59,2.37,2.37,0,0,1,.53.89,3.36,3.36,0,0,1,.18,1.14v4.61h-.79a.83.83,0,0,1-.38-.07.49.49,0,0,1-.21-.31l-.16-.52a5.66,5.66,0,0,1-.54.43,3,3,0,0,1-.54.32,3.11,3.11,0,0,1-.61.2,3.35,3.35,0,0,1-.71.06,2.77,2.77,0,0,1-.85-.12,2,2,0,0,1-.67-.37,1.71,1.71,0,0,1-.44-.62,2.14,2.14,0,0,1-.15-.86,1.77,1.77,0,0,1,.09-.56,1.81,1.81,0,0,1,.3-.52,2.68,2.68,0,0,1,.54-.47,3.59,3.59,0,0,1,.82-.38,7.15,7.15,0,0,1,1.13-.27,10.17,10.17,0,0,1,1.47-.13v-.42a1.62,1.62,0,0,0-.31-1.09,1.13,1.13,0,0,0-.9-.35,2,2,0,0,0-.7.1,3.16,3.16,0,0,0-.5.22l-.38.23a.87.87,0,0,1-.39.1.5.5,0,0,1-.31-.1.83.83,0,0,1-.2-.22Zm4,3.17a11.1,11.1,0,0,0-1.28.13,3.38,3.38,0,0,0-.82.25,1,1,0,0,0-.45.35.75.75,0,0,0-.13.43.76.76,0,0,0,.27.67,1.12,1.12,0,0,0,.71.19A2,2,0,0,0,99.5,33a2.77,2.77,0,0,0,.77-.59Z" transform="translate(0 -0.01)"/><path id="Path_182" data-name="Path 182" class="cls-5" d="M115.28,29.1v4.17a5.48,5.48,0,0,1-1.65.84,6.75,6.75,0,0,1-1.89.27,6.53,6.53,0,0,1-2.27-.39,5.39,5.39,0,0,1-1.73-1.09,4.84,4.84,0,0,1-1.11-1.67,5.63,5.63,0,0,1-.38-2.11,5.93,5.93,0,0,1,.37-2.13,4.71,4.71,0,0,1,2.74-2.75,6.12,6.12,0,0,1,2.21-.38,6.49,6.49,0,0,1,1.16.1,5.68,5.68,0,0,1,1,.27,4.48,4.48,0,0,1,.85.42,5.29,5.29,0,0,1,.7.55l-.54.87a.53.53,0,0,1-.34.25.58.58,0,0,1-.44-.1l-.47-.27a2.45,2.45,0,0,0-.52-.24,4.61,4.61,0,0,0-.64-.16,3.82,3.82,0,0,0-.83-.06,3.53,3.53,0,0,0-1.36.25,3.1,3.1,0,0,0-1,.73,3.48,3.48,0,0,0-.66,1.15,4.48,4.48,0,0,0-.23,1.5,4.42,4.42,0,0,0,.25,1.57,3.36,3.36,0,0,0,.7,1.18,3.12,3.12,0,0,0,1.1.73,3.94,3.94,0,0,0,1.44.25,3.45,3.45,0,0,0,1-.12,4.25,4.25,0,0,0,.86-.33V30.54h-1.28a.38.38,0,0,1-.29-.1.35.35,0,0,1-.1-.26V29.1Z" transform="translate(0 -0.01)"/><path id="Path_183" data-name="Path 183" class="cls-5" d="M120.09,26.84a4.12,4.12,0,0,1,1.47.27,3.15,3.15,0,0,1,1.13.75,3.18,3.18,0,0,1,.72,1.18,4.9,4.9,0,0,1,0,3.12,3.31,3.31,0,0,1-.72,1.19,3.22,3.22,0,0,1-1.13.76,4.11,4.11,0,0,1-1.47.26,4.16,4.16,0,0,1-1.48-.26,3.22,3.22,0,0,1-1.13-.76,3.48,3.48,0,0,1-.73-1.19,4.77,4.77,0,0,1,0-3.12,3.21,3.21,0,0,1,.73-1.18,3.15,3.15,0,0,1,1.13-.75,4.17,4.17,0,0,1,1.48-.27m0,6.18a1.56,1.56,0,0,0,1.34-.62,3,3,0,0,0,.44-1.79,3.15,3.15,0,0,0-.44-1.8,1.51,1.51,0,0,0-1.34-.62,1.57,1.57,0,0,0-1.36.62,3.08,3.08,0,0,0-.44,1.8,3,3,0,0,0,.44,1.79,1.56,1.56,0,0,0,1.36.61" transform="translate(0 -0.01)"/><rect id="Rectangle_104" data-name="Rectangle 104" class="cls-5" x="124.91" y="23.68" width="1.75" height="10.58"/><rect id="Rectangle_105" data-name="Rectangle 105" class="cls-5" x="128.07" y="23.68" width="1.75" height="10.58"/><path id="Path_184" data-name="Path 184" class="cls-5" d="M132.91,30.83a3.23,3.23,0,0,0,.2,1,1.88,1.88,0,0,0,.4.68,1.8,1.8,0,0,0,.61.4,2.27,2.27,0,0,0,.77.13,2.64,2.64,0,0,0,.74-.1,3.49,3.49,0,0,0,.53-.22l.41-.22a.56.56,0,0,1,.33-.1.36.36,0,0,1,.33.16l.5.64a2.93,2.93,0,0,1-.65.57,3.27,3.27,0,0,1-.75.37,3.75,3.75,0,0,1-.8.2,7,7,0,0,1-.79.06,4,4,0,0,1-1.41-.26,3.26,3.26,0,0,1-1.13-.74,3.73,3.73,0,0,1-.76-1.23,4.83,4.83,0,0,1-.27-1.69,3.93,3.93,0,0,1,.24-1.4,3.21,3.21,0,0,1,.69-1.15,3.33,3.33,0,0,1,1.09-.77,3.53,3.53,0,0,1,1.46-.29,3.65,3.65,0,0,1,1.27.22,2.66,2.66,0,0,1,1,.65,2.82,2.82,0,0,1,.65,1,3.72,3.72,0,0,1,.24,1.4,1.12,1.12,0,0,1-.09.54.36.36,0,0,1-.32.14Zm3.33-1.06a2.05,2.05,0,0,0-.1-.65,1.35,1.35,0,0,0-.77-.89,1.75,1.75,0,0,0-.68-.13,1.63,1.63,0,0,0-1.19.44,2.12,2.12,0,0,0-.56,1.23Z" transform="translate(0 -0.01)"/><path id="Path_185" data-name="Path 185" class="cls-5" d="M140.82,28.23a3.14,3.14,0,0,1,.81-1,1.69,1.69,0,0,1,1.1-.38,1.43,1.43,0,0,1,.81.22l-.11,1.32a.34.34,0,0,1-.11.18.28.28,0,0,1-.18.06l-.31,0a2.85,2.85,0,0,0-.41,0,1.58,1.58,0,0,0-.52.09,1.63,1.63,0,0,0-.4.24,2,2,0,0,0-.32.39,3.6,3.6,0,0,0-.26.52v4.5h-1.74V27h1a.43.43,0,0,1,.51.32.49.49,0,0,1,0,.12Z" transform="translate(0 -0.01)"/><g id="Group_191" data-name="Group 191" class="cls-6"><g id="Group_190" data-name="Group 190"><g class="cls-8"><g id="Group_189" data-name="Group 189"><path id="Path_186" data-name="Path 186" class="cls-5" d="M31.71,2.58a8.35,8.35,0,0,0-8.28,7.62,5,5,0,0,1,1.18.48,4.72,4.72,0,0,1,.84.56A7.14,7.14,0,0,1,27.82,16a13.41,13.41,0,0,1,0,2.37,8.29,8.29,0,0,0,11.22-3.54A8.39,8.39,0,0,0,35.56,3.54a8.23,8.23,0,0,0-3.85-1" transform="translate(0 -0.01)"/></g></g></g></g><g id="Group_194" data-name="Group 194" class="cls-3"><g id="Group_193" data-name="Group 193"><g class="cls-9"><g id="Group_192" data-name="Group 192"><path id="Path_187" data-name="Path 187" class="cls-5" d="M21.54,16.56a.49.49,0,0,1-.42-.26c-.18-.35-.47-.77-.84-.8s-1.11.63-1.28.86a.46.46,0,0,1-.65.13.48.48,0,0,1-.13-.66l0,0a2.83,2.83,0,0,1,2.1-1.25A2.08,2.08,0,0,1,22,15.87a.48.48,0,0,1-.21.63.41.41,0,0,1-.21.05" transform="translate(0 -0.01)"/></g></g></g></g><g id="Group_197" data-name="Group 197" class="cls-3"><g id="Group_196" data-name="Group 196"><g class="cls-10"><g id="Group_195" data-name="Group 195"><path id="Path_188" data-name="Path 188" class="cls-5" d="M16.11,16.56a.46.46,0,0,1-.41-.26c-.27-.51-.56-.78-.85-.8-.51,0-1.11.63-1.28.86a.46.46,0,0,1-.65.12.48.48,0,0,1-.12-.66h0c.1-.13,1-1.32,2.1-1.25a2.08,2.08,0,0,1,1.62,1.31.48.48,0,0,1-.21.63.38.38,0,0,1-.21.05" transform="translate(0 -0.01)"/></g></g></g></g><g id="Group_200" data-name="Group 200" class="cls-3"><g id="Group_199" data-name="Group 199"><g class="cls-11"><g id="Group_198" data-name="Group 198"><path id="Path_189" data-name="Path 189" class="cls-5" d="M16.9,22a5.45,5.45,0,0,1-3.32-1.23.47.47,0,0,1-.12-.66.48.48,0,0,1,.66-.11l0,0a4.37,4.37,0,0,0,3.4,1c2.38-.4,4.08-2.87,4.1-2.89a.47.47,0,0,1,.77.53c-.07.12-1.93,2.83-4.71,3.29a5.4,5.4,0,0,1-.8.07" transform="translate(0 -0.01)"/></g></g></g></g></g></g></svg>