<svg id="Layer_1" data-name="Layer 1" xmlns="http://www.w3.org/2000/svg" xmlns:xlink="http://www.w3.org/1999/xlink" viewBox="0 0 144 40"><defs><style>.cls-1{fill:none;}.cls-2{fill:#a8a8a7;}.cls-3{fill:#707171;}.cls-4{fill:#9ca2a3;}.cls-5{opacity:0.6;}.cls-6{clip-path:url(#clip-path);}.cls-7{fill:#3e4141;}.cls-8{clip-path:url(#clip-path-2);}.cls-9{fill:#cce09d;}.cls-10{fill:#fff;}</style><clipPath id="clip-path" transform="translate(0 0)"><rect class="cls-1" x="18.9" width="10.67" height="10.7"/></clipPath><clipPath id="clip-path-2" transform="translate(0 0)"><rect class="cls-1" x="23.47" y="2.58" width="16.69" height="16.74"/></clipPath></defs><g id="Group_181" data-name="Group 181"><g id="Group_180" data-name="Group 180"><g id="Group_179" data-name="Group 179"><path id="Path_124" data-name="Path 124" class="cls-2" d="M55.17,11.71a.44.44,0,0,1-.07.22l-4.78,6.69h4.81v.46H49.59v-.2a.18.18,0,0,1,0-.1.36.36,0,0,1,0-.09L54.44,12H49.73v-.46h5.44Z" transform="translate(0 0)"/><path id="Path_125" data-name="Path 125" class="cls-2" d="M56.24,14.52a3.17,3.17,0,0,1,.87-.63,2.49,2.49,0,0,1,1-.22,2.12,2.12,0,0,1,.75.14,1.43,1.43,0,0,1,.52.39,1.63,1.63,0,0,1,.32.61,2.82,2.82,0,0,1,.11.81v3.46h-.2a.19.19,0,0,1-.2-.15l-.07-.68-.44.38a2.66,2.66,0,0,1-.45.29,2.3,2.3,0,0,1-.5.18,2.45,2.45,0,0,1-.6.06,1.59,1.59,0,0,1-.53-.08,1.31,1.31,0,0,1-.45-.24,1.13,1.13,0,0,1-.32-.43,1.43,1.43,0,0,1-.12-.62,1.13,1.13,0,0,1,.19-.62,1.52,1.52,0,0,1,.6-.5,4.05,4.05,0,0,1,1.05-.35,10,10,0,0,1,1.54-.15v-.55A1.76,1.76,0,0,0,59,14.48a1.12,1.12,0,0,0-.94-.39,1.8,1.8,0,0,0-.65.1,2.88,2.88,0,0,0-.46.24l-.3.23a.31.31,0,0,1-.2.11.15.15,0,0,1-.09,0,.46.46,0,0,1-.07-.07Zm3.11,2a9.52,9.52,0,0,0-1.3.12,4,4,0,0,0-.9.25,1.4,1.4,0,0,0-.52.38.85.85,0,0,0-.17.51.93.93,0,0,0,.09.46.9.9,0,0,0,.23.32.86.86,0,0,0,.34.18,1.34,1.34,0,0,0,.4.06,2.6,2.6,0,0,0,.56-.06,2.53,2.53,0,0,0,.48-.19,2.42,2.42,0,0,0,.42-.29l.38-.35Z" transform="translate(0 0)"/><path id="Path_126" data-name="Path 126" class="cls-2" d="M62,14.66a2.86,2.86,0,0,1,.84-.71,2.17,2.17,0,0,1,1.06-.27,2,2,0,0,1,.76.14,1.41,1.41,0,0,1,.56.4,1.81,1.81,0,0,1,.33.63,3.32,3.32,0,0,1,.11.83v3.4h-.51v-3.4a1.87,1.87,0,0,0-.34-1.17,1.25,1.25,0,0,0-1-.42,1.93,1.93,0,0,0-1,.26,2.93,2.93,0,0,0-.8.73v4h-.51V11.31H62Z" transform="translate(0 0)"/><path id="Path_127" data-name="Path 127" class="cls-2" d="M67.76,14.69a3,3,0,0,1,.85-.73,2.09,2.09,0,0,1,1.07-.28,2.06,2.06,0,0,1,.77.14,1.45,1.45,0,0,1,.55.4,1.9,1.9,0,0,1,.33.63,2.6,2.6,0,0,1,.11.83v3.4h-.51v-3.4a1.87,1.87,0,0,0-.34-1.17,1.24,1.24,0,0,0-1-.42,1.89,1.89,0,0,0-1,.26,2.67,2.67,0,0,0-.8.73v4h-.52V13.77h.29a.14.14,0,0,1,.15.12h0Z" transform="translate(0 0)"/><path id="Path_128" data-name="Path 128" class="cls-2" d="M73,14.52a3,3,0,0,1,.87-.63,2.49,2.49,0,0,1,1-.22,2.07,2.07,0,0,1,.74.14,1.38,1.38,0,0,1,.53.39,1.63,1.63,0,0,1,.32.61,3.22,3.22,0,0,1,.11.81v3.46h-.21a.18.18,0,0,1-.19-.15l-.08-.68c-.14.13-.28.26-.43.38a2.66,2.66,0,0,1-.45.29,2.21,2.21,0,0,1-.51.18,2.32,2.32,0,0,1-.59.06,1.59,1.59,0,0,1-.53-.08,1.22,1.22,0,0,1-.45-.24,1.13,1.13,0,0,1-.32-.43,1.3,1.3,0,0,1-.12-.62,1.06,1.06,0,0,1,.19-.62,1.46,1.46,0,0,1,.6-.5,3.93,3.93,0,0,1,1-.35,9.92,9.92,0,0,1,1.54-.15v-.55a1.71,1.71,0,0,0-.32-1.14,1.11,1.11,0,0,0-.93-.39,1.74,1.74,0,0,0-.65.1,2.51,2.51,0,0,0-.46.24,2.37,2.37,0,0,0-.3.23.31.31,0,0,1-.2.11.18.18,0,0,1-.1,0l-.06-.07Zm3.11,2a9.38,9.38,0,0,0-1.3.12,4,4,0,0,0-.9.25,1.4,1.4,0,0,0-.52.38.73.73,0,0,0-.17.51,1,1,0,0,0,.08.46,1.08,1.08,0,0,0,.24.32.86.86,0,0,0,.34.18,1.27,1.27,0,0,0,.39.06,2.62,2.62,0,0,0,.57-.06,2.53,2.53,0,0,0,.48-.19,2,2,0,0,0,.41-.29l.38-.35Z" transform="translate(0 0)"/><path id="Path_129" data-name="Path 129" class="cls-2" d="M78.47,15.05a2.58,2.58,0,0,1,.28-.58,1.65,1.65,0,0,1,.36-.43,1.33,1.33,0,0,1,.46-.27,1.54,1.54,0,0,1,.56-.1,1.66,1.66,0,0,1,.32,0,.69.69,0,0,1,.28.11l0,.35a.1.1,0,0,1-.1.08.58.58,0,0,1-.19,0,1.39,1.39,0,0,0-.35,0,1.65,1.65,0,0,0-.54.09,1.39,1.39,0,0,0-.43.28,2.15,2.15,0,0,0-.33.46,5,5,0,0,0-.26.64v3.44H78V13.77h.27a.14.14,0,0,1,.13,0,.21.21,0,0,1,.05.13Z" transform="translate(0 0)"/><path id="Path_130" data-name="Path 130" class="cls-2" d="M85.34,13.77V14a.3.3,0,0,1-.08.2L82,18.68H85.2v.4H81.33v-.2a.4.4,0,0,1,.08-.2l3.33-4.51H81.51v-.4Z" transform="translate(0 0)"/><path id="Path_131" data-name="Path 131" class="cls-2" d="M88.33,19.16a1.12,1.12,0,0,1-.84-.3,1.23,1.23,0,0,1-.3-.92V14.31h-.76a.17.17,0,0,1-.1,0,.1.1,0,0,1,0-.09V14l.9-.06L87.33,12a.2.2,0,0,1,0-.08.11.11,0,0,1,.09,0h.24v2h1.67v.38H87.7v3.6a1,1,0,0,0,0,.38.63.63,0,0,0,.16.26.51.51,0,0,0,.23.15.93.93,0,0,0,.29.05,1,1,0,0,0,.33-.06,1,1,0,0,0,.23-.12l.17-.12a.21.21,0,0,1,.1-.06.15.15,0,0,1,.09.06l.13.22A1.32,1.32,0,0,1,89,19a1.58,1.58,0,0,1-.65.14" transform="translate(0 0)"/><path id="Path_132" data-name="Path 132" class="cls-2" d="M91.13,14.72A2.88,2.88,0,0,1,92,14,1.93,1.93,0,0,1,93,13.68a1.82,1.82,0,0,1,1.52.68,3.17,3.17,0,0,1,.54,2,3.38,3.38,0,0,1-.15,1.09,2.49,2.49,0,0,1-.45.87,2.06,2.06,0,0,1-.72.59,2.23,2.23,0,0,1-1,.21,1.89,1.89,0,0,1-1.61-.78V21h-.51V13.77h.28a.15.15,0,0,1,.16.12h0Zm0,3.2a2.44,2.44,0,0,0,.33.39,1.48,1.48,0,0,0,.35.25,1.12,1.12,0,0,0,.4.14,2,2,0,0,0,1.26-.12,1.74,1.74,0,0,0,.59-.49,2.24,2.24,0,0,0,.35-.75,3.06,3.06,0,0,0,.12-.95,2.83,2.83,0,0,0-.43-1.75,1.5,1.5,0,0,0-1.25-.55,1.67,1.67,0,0,0-1,.27,2.54,2.54,0,0,0-.77.76Z" transform="translate(0 0)"/><path id="Path_133" data-name="Path 133" class="cls-2" d="M96.94,15.05a2.58,2.58,0,0,1,.28-.58,1.65,1.65,0,0,1,.36-.43,1.38,1.38,0,0,1,.45-.27,1.56,1.56,0,0,1,.57-.1,1.73,1.73,0,0,1,.32,0,.69.69,0,0,1,.28.11l0,.35a.1.1,0,0,1-.1.08.58.58,0,0,1-.19,0,1.39,1.39,0,0,0-.35,0,1.65,1.65,0,0,0-.54.09,1.39,1.39,0,0,0-.43.28,2.15,2.15,0,0,0-.33.46,5,5,0,0,0-.26.64v3.44h-.51V13.77h.27a.15.15,0,0,1,.13,0,.21.21,0,0,1,.05.13Z" transform="translate(0 0)"/><path id="Path_134" data-name="Path 134" class="cls-2" d="M100,14.52a3.08,3.08,0,0,1,.88-.63,2.45,2.45,0,0,1,1-.22,2.12,2.12,0,0,1,.75.14,1.55,1.55,0,0,1,.53.39,1.76,1.76,0,0,1,.31.61,2.82,2.82,0,0,1,.11.81v3.46h-.2a.19.19,0,0,1-.2-.15l-.07-.68-.44.38a2.66,2.66,0,0,1-.45.29,2.3,2.3,0,0,1-.5.18,2.45,2.45,0,0,1-.6.06,1.53,1.53,0,0,1-.52-.08,1.26,1.26,0,0,1-.46-.24,1.24,1.24,0,0,1-.32-.43,1.59,1.59,0,0,1-.12-.62,1.13,1.13,0,0,1,.19-.62,1.6,1.6,0,0,1,.6-.5,4,4,0,0,1,1.06-.35,9.8,9.8,0,0,1,1.54-.15v-.55a1.83,1.83,0,0,0-.32-1.14,1.12,1.12,0,0,0-.94-.39,1.8,1.8,0,0,0-.65.1,2.42,2.42,0,0,0-.45.24,3.55,3.55,0,0,0-.31.23.31.31,0,0,1-.2.11.15.15,0,0,1-.09,0,.19.19,0,0,1-.06-.07Zm3.12,2a9.67,9.67,0,0,0-1.31.12,3.93,3.93,0,0,0-.89.25,1.36,1.36,0,0,0-.53.38.85.85,0,0,0-.17.51,1.22,1.22,0,0,0,.09.46.9.9,0,0,0,.23.32.93.93,0,0,0,.34.18,1.34,1.34,0,0,0,.4.06,2.76,2.76,0,0,0,.57-.06,3.19,3.19,0,0,0,.48-.19,2.78,2.78,0,0,0,.41-.29l.38-.35Z" transform="translate(0 0)"/><path id="Path_135" data-name="Path 135" class="cls-2" d="M109.31,19.08h-.48a.18.18,0,0,1-.12,0l-.07-.08L107,16.59a1.08,1.08,0,0,1-.08.19L105.43,19l-.08.09a.21.21,0,0,1-.11,0h-.45l1.92-2.72-1.85-2.59h.49a.12.12,0,0,1,.11,0l.06.07,1.55,2.25a.36.36,0,0,1,0-.09l0-.1,1.45-2,.07-.08a.17.17,0,0,1,.1,0h.46l-1.85,2.56Z" transform="translate(0 0)"/><path id="Path_136" data-name="Path 136" class="cls-2" d="M111.2,11.93a.34.34,0,0,1,0,.18.46.46,0,0,1-.25.25.45.45,0,0,1-.36,0,.46.46,0,0,1-.25-.25.34.34,0,0,1,0-.18.47.47,0,0,1,.29-.43.45.45,0,0,1,.36,0,.48.48,0,0,1,.29.43M111,19.08h-.51V13.77H111Z" transform="translate(0 0)"/><path id="Path_137" data-name="Path 137" class="cls-2" d="M115.7,14.42a.13.13,0,0,1-.12.08.26.26,0,0,1-.15-.07l-.24-.15a2.5,2.5,0,0,0-.38-.15,1.66,1.66,0,0,0-.54-.06,1.37,1.37,0,0,0-.53.08,1.31,1.31,0,0,0-.4.22.93.93,0,0,0-.26.33.85.85,0,0,0-.09.38.7.7,0,0,0,.13.42,1.12,1.12,0,0,0,.33.28,2.81,2.81,0,0,0,.47.21l.54.17a5.1,5.1,0,0,1,.55.19,2.37,2.37,0,0,1,.47.25,1.48,1.48,0,0,1,.33.38,1.17,1.17,0,0,1,.13.55,1.56,1.56,0,0,1-.13.64,1.45,1.45,0,0,1-.35.52,1.68,1.68,0,0,1-.59.35,2.34,2.34,0,0,1-.79.13,2.41,2.41,0,0,1-1-.18,2.68,2.68,0,0,1-.73-.47l.12-.18a.17.17,0,0,1,.06-.06.1.1,0,0,1,.09,0,.21.21,0,0,1,.17.08,1.27,1.27,0,0,0,.27.18,1.84,1.84,0,0,0,.4.19,1.77,1.77,0,0,0,.6.08,1.49,1.49,0,0,0,.59-.09,1.12,1.12,0,0,0,.42-.25,1,1,0,0,0,.26-.38,1.18,1.18,0,0,0,.09-.46.71.71,0,0,0-.13-.44,1.18,1.18,0,0,0-.33-.3,4,4,0,0,0-.47-.21l-.54-.17c-.19,0-.37-.12-.55-.18a2.42,2.42,0,0,1-.47-.26,1.21,1.21,0,0,1-.33-.38,1.06,1.06,0,0,1-.13-.55,1.25,1.25,0,0,1,.12-.54,1.31,1.31,0,0,1,.35-.46,1.69,1.69,0,0,1,.55-.32,2,2,0,0,1,.73-.11,2.32,2.32,0,0,1,.86.14,2,2,0,0,1,.68.42Z" transform="translate(0 0)"/><path id="Path_138" data-name="Path 138" class="cls-3" d="M58.7,29.12a5.43,5.43,0,0,1-.38,2.07,4.62,4.62,0,0,1-1,1.63,4.8,4.8,0,0,1-1.64,1.07,6,6,0,0,1-2.13.37H49.59V24H53.5a5.73,5.73,0,0,1,2.13.38,4.92,4.92,0,0,1,1.64,1.06,4.62,4.62,0,0,1,1,1.63,5.48,5.48,0,0,1,.38,2.08m-2,0a5,5,0,0,0-.22-1.53,3.32,3.32,0,0,0-.65-1.14,2.8,2.8,0,0,0-1-.71,3.48,3.48,0,0,0-1.35-.25h-2v7.25h2a3.48,3.48,0,0,0,1.35-.25,2.71,2.71,0,0,0,1-.72,3,3,0,0,0,.65-1.14,4.59,4.59,0,0,0,.22-1.52" transform="translate(0 0)"/><path id="Path_139" data-name="Path 139" class="cls-3" d="M61.69,28.23a3,3,0,0,1,.81-1,1.69,1.69,0,0,1,1.1-.38,1.43,1.43,0,0,1,.81.22l-.11,1.32a.4.4,0,0,1-.1.18.32.32,0,0,1-.18.06l-.32,0a2.73,2.73,0,0,0-.41,0,1.35,1.35,0,0,0-.52.08,1.28,1.28,0,0,0-.4.25,1.44,1.44,0,0,0-.32.38,3.6,3.6,0,0,0-.26.52v4.5H60V27h1a.43.43,0,0,1,.51.32.49.49,0,0,1,0,.12Z" transform="translate(0 0)"/><path id="Path_140" data-name="Path 140" class="cls-3" d="M64.15,33.29a1.25,1.25,0,0,1,.08-.42,1.07,1.07,0,0,1,1-.65,1.16,1.16,0,0,1,.42.08,1.2,1.2,0,0,1,.34.23A1.06,1.06,0,0,1,66,34h0a1.07,1.07,0,0,1-.76.31,1.2,1.2,0,0,1-.42-.08.89.89,0,0,1-.34-.23.94.94,0,0,1-.23-.33,1.26,1.26,0,0,1-.08-.43" transform="translate(0 0)"/><path id="Path_141" data-name="Path 141" class="cls-3" d="M72.65,28.28h.44a1.12,1.12,0,0,0,.45-.07.81.81,0,0,0,.31-.24l2.83-3.59a.88.88,0,0,1,.37-.32,1,1,0,0,1,.49-.09h1.65l-3.46,4.28a1.76,1.76,0,0,1-.63.55,1.44,1.44,0,0,1,.42.24,2,2,0,0,1,.36.4l3.56,4.82H77.76a1.08,1.08,0,0,1-.5-.09.71.71,0,0,1-.28-.29l-2.91-3.8a.74.74,0,0,0-.31-.27,1.44,1.44,0,0,0-.51-.08h-.6v4.53H70.74V24h1.91Z" transform="translate(0 0)"/><path id="Path_142" data-name="Path 142" class="cls-3" d="M79.94,28a4.29,4.29,0,0,1,3-1.16A3.16,3.16,0,0,1,84.1,27a2.29,2.29,0,0,1,.85.59,2.37,2.37,0,0,1,.53.89,3.17,3.17,0,0,1,.18,1.14v4.61h-.79a.83.83,0,0,1-.38-.07.51.51,0,0,1-.22-.3l-.15-.53c-.18.16-.36.3-.54.44a3.35,3.35,0,0,1-.55.31,2.72,2.72,0,0,1-.61.2,3.35,3.35,0,0,1-.71.07,2.7,2.7,0,0,1-.85-.13,1.71,1.71,0,0,1-1.11-1,2.34,2.34,0,0,1-.16-.86,1.77,1.77,0,0,1,.09-.56,1.53,1.53,0,0,1,.31-.52,2.43,2.43,0,0,1,.54-.47,3.4,3.4,0,0,1,.82-.38,7.43,7.43,0,0,1,1.13-.27A10.43,10.43,0,0,1,84,30.08v-.43a1.58,1.58,0,0,0-.32-1.09,1.15,1.15,0,0,0-.9-.35,2.08,2.08,0,0,0-.7.1,3.16,3.16,0,0,0-.5.22l-.38.23a.87.87,0,0,1-.39.1.5.5,0,0,1-.31-.1,1.1,1.1,0,0,1-.21-.22Zm4,3.16a9.14,9.14,0,0,0-1.27.14,2.94,2.94,0,0,0-.83.24,1.19,1.19,0,0,0-.45.35.76.76,0,0,0-.14.43.78.78,0,0,0,.28.67,1.2,1.2,0,0,0,.71.2,2.13,2.13,0,0,0,.93-.2,2.77,2.77,0,0,0,.77-.59Z" transform="translate(0 0)"/><path id="Path_143" data-name="Path 143" class="cls-3" d="M89.58,34.38a1.93,1.93,0,0,1-1.46-.54,2.07,2.07,0,0,1-.51-1.49V28.28h-.74a.34.34,0,0,1-.34-.37v-.7L87.7,27l.37-2a.36.36,0,0,1,.13-.22.47.47,0,0,1,.26-.08h.9V27h2v1.26h-2v3.95a.79.79,0,0,0,.17.54A.58.58,0,0,0,90,33a.84.84,0,0,0,.27,0l.19-.08.15-.08a.2.2,0,0,1,.13,0,.14.14,0,0,1,.12,0,.57.57,0,0,1,.11.11l.53.86a2.7,2.7,0,0,1-.88.48,3,3,0,0,1-1,.16" transform="translate(0 0)"/><path id="Path_144" data-name="Path 144" class="cls-3" d="M95,27v7.55a3.06,3.06,0,0,1-.13.9,1.87,1.87,0,0,1-.4.73,1.68,1.68,0,0,1-.71.5,2.9,2.9,0,0,1-1.09.18l-.46,0a3.48,3.48,0,0,1-.44-.1l.07-.95a.21.21,0,0,1,.11-.18,1.08,1.08,0,0,1,.35,0,1.73,1.73,0,0,0,.45-.05A.66.66,0,0,0,93,35.3a.89.89,0,0,0,.15-.31,2,2,0,0,0,0-.48V27Zm.24-2.13a1.07,1.07,0,0,1-.09.43,1.24,1.24,0,0,1-.25.35,1.26,1.26,0,0,1-.36.24,1.13,1.13,0,0,1-.45.09,1,1,0,0,1-.42-.09,1.21,1.21,0,0,1-.59-.59,1.07,1.07,0,0,1-.09-.43,1.12,1.12,0,0,1,.09-.44,1.41,1.41,0,0,1,.24-.36,1.15,1.15,0,0,1,.77-.32,1.13,1.13,0,0,1,.45.09,1.05,1.05,0,0,1,.36.23,1.45,1.45,0,0,1,.25.36,1.12,1.12,0,0,1,.09.44" transform="translate(0 0)"/><path id="Path_145" data-name="Path 145" class="cls-3" d="M96.57,28a4.31,4.31,0,0,1,3-1.16,3.2,3.2,0,0,1,1.14.21,2.44,2.44,0,0,1,1.38,1.48,3.67,3.67,0,0,1,.18,1.14v4.61h-.8a.83.83,0,0,1-.38-.07.54.54,0,0,1-.21-.3l-.16-.53a5.75,5.75,0,0,1-.54.44,2.69,2.69,0,0,1-.55.31,2.49,2.49,0,0,1-.6.2,3.51,3.51,0,0,1-.72.07,2.79,2.79,0,0,1-.85-.13,1.77,1.77,0,0,1-.67-.37,1.71,1.71,0,0,1-.44-.62,2.11,2.11,0,0,1-.15-.86,1.77,1.77,0,0,1,.09-.56,1.68,1.68,0,0,1,.3-.52,2.68,2.68,0,0,1,.54-.47,3.59,3.59,0,0,1,.82-.38,7.43,7.43,0,0,1,1.13-.27,10.43,10.43,0,0,1,1.48-.12v-.43a1.62,1.62,0,0,0-.31-1.09,1.18,1.18,0,0,0-.9-.35,2.14,2.14,0,0,0-.71.1,3.06,3.06,0,0,0-.49.22l-.39.23a.86.86,0,0,1-.38.1.51.51,0,0,1-.32-.1.83.83,0,0,1-.2-.22Zm4,3.16a9.11,9.11,0,0,0-1.28.14,3.14,3.14,0,0,0-.83.24,1.19,1.19,0,0,0-.45.35.83.83,0,0,0-.13.43.8.8,0,0,0,.27.67,1.2,1.2,0,0,0,.71.2,2.15,2.15,0,0,0,.94-.2,2.77,2.77,0,0,0,.77-.59Z" transform="translate(0 0)"/><path id="Path_146" data-name="Path 146" class="cls-3" d="M115.65,29.1v4.17a5.41,5.41,0,0,1-1.66.84,6.69,6.69,0,0,1-1.89.27,6.33,6.33,0,0,1-2.28-.4,5.2,5.2,0,0,1-1.73-1.08A4.73,4.73,0,0,1,107,31.23a5.85,5.85,0,0,1-.39-2.11A6.17,6.17,0,0,1,107,27a4.7,4.7,0,0,1,2.75-2.75,6.19,6.19,0,0,1,2.21-.38,6.6,6.6,0,0,1,1.17.1,6,6,0,0,1,1,.27,4.79,4.79,0,0,1,.85.42,5.29,5.29,0,0,1,.7.55l-.55.87a.49.49,0,0,1-.33.25.6.6,0,0,1-.45-.1l-.47-.27a2.45,2.45,0,0,0-.52-.24,4.61,4.61,0,0,0-.64-.16,3.87,3.87,0,0,0-.83-.06,3.54,3.54,0,0,0-1.37.25,3.1,3.1,0,0,0-1,.73,3.31,3.31,0,0,0-.66,1.15,4.25,4.25,0,0,0-.24,1.5,4.65,4.65,0,0,0,.25,1.57,3.39,3.39,0,0,0,.71,1.18,3.07,3.07,0,0,0,1.11.73,3.9,3.9,0,0,0,1.44.25,3.45,3.45,0,0,0,1-.12,4.58,4.58,0,0,0,.87-.33V30.54h-1.29a.35.35,0,0,1-.39-.36V29.1Z" transform="translate(0 0)"/><path id="Path_147" data-name="Path 147" class="cls-3" d="M120.48,26.84a4.12,4.12,0,0,1,1.47.27A3.14,3.14,0,0,1,123.81,29a4.9,4.9,0,0,1,0,3.12,3.31,3.31,0,0,1-.72,1.19,3.1,3.1,0,0,1-1.14.75,3.91,3.91,0,0,1-1.47.27A4,4,0,0,1,119,34.1a3.19,3.19,0,0,1-1.14-.75,3.48,3.48,0,0,1-.73-1.19,4.9,4.9,0,0,1,0-3.12,3.35,3.35,0,0,1,.73-1.18,3.19,3.19,0,0,1,1.14-.75,4.22,4.22,0,0,1,1.49-.27m0,6.18a1.56,1.56,0,0,0,1.34-.62,3,3,0,0,0,.44-1.79,3.08,3.08,0,0,0-.44-1.8,1.51,1.51,0,0,0-1.34-.62,1.57,1.57,0,0,0-1.37.62,3.08,3.08,0,0,0-.44,1.8,3,3,0,0,0,.44,1.79,1.61,1.61,0,0,0,1.37.62" transform="translate(0 0)"/><rect id="Rectangle_96" data-name="Rectangle 96" class="cls-3" x="125.31" y="23.68" width="1.75" height="10.58"/><rect id="Rectangle_97" data-name="Rectangle 97" class="cls-3" x="128.48" y="23.68" width="1.75" height="10.58"/><path id="Path_148" data-name="Path 148" class="cls-3" d="M133.33,30.83a3.56,3.56,0,0,0,.2,1,2.06,2.06,0,0,0,.41.68,1.66,1.66,0,0,0,.61.4,2.28,2.28,0,0,0,.78.13,2.57,2.57,0,0,0,.73-.1,3.21,3.21,0,0,0,.54-.22l.41-.22a.58.58,0,0,1,.33-.1.36.36,0,0,1,.33.16l.5.64a2.54,2.54,0,0,1-.65.57,3.08,3.08,0,0,1-.75.37,3.69,3.69,0,0,1-.81.2,5.16,5.16,0,0,1-.79,0,3.78,3.78,0,0,1-1.41-.25,3.1,3.1,0,0,1-1.14-.75,3.42,3.42,0,0,1-.75-1.22,4.62,4.62,0,0,1-.28-1.69,4.22,4.22,0,0,1,.24-1.41,3.42,3.42,0,0,1,.69-1.14,3.22,3.22,0,0,1,1.1-.77,3.5,3.5,0,0,1,1.46-.29,3.61,3.61,0,0,1,1.27.22,2.66,2.66,0,0,1,1,.65,2.84,2.84,0,0,1,.66,1,3.72,3.72,0,0,1,.24,1.4,1.26,1.26,0,0,1-.09.54.36.36,0,0,1-.32.14Zm3.35-1.06a2.25,2.25,0,0,0-.1-.64,1.44,1.44,0,0,0-.29-.53,1.25,1.25,0,0,0-.49-.36,1.56,1.56,0,0,0-.68-.14,1.67,1.67,0,0,0-1.2.44,2.17,2.17,0,0,0-.55,1.23Z" transform="translate(0 0)"/><path id="Path_149" data-name="Path 149" class="cls-3" d="M141.28,28.23a3.11,3.11,0,0,1,.8-1,1.74,1.74,0,0,1,1.11-.38A1.43,1.43,0,0,1,144,27l-.11,1.32a.34.34,0,0,1-.11.18.28.28,0,0,1-.18.06l-.31,0a2.83,2.83,0,0,0-.41,0,1.28,1.28,0,0,0-.93.33,2,2,0,0,0-.32.38,5,5,0,0,0-.26.52v4.5h-1.75V27h1a.43.43,0,0,1,.51.32.49.49,0,0,1,0,.12Z" transform="translate(0 0)"/><path id="Path_150" data-name="Path 150" class="cls-4" d="M35.33,22.28A17.67,17.67,0,1,1,17.66,4.56h0A17.69,17.69,0,0,1,35.33,22.28" transform="translate(0 0)"/><g id="Group_175" data-name="Group 175" class="cls-5"><g id="Group_174" data-name="Group 174"><g class="cls-6"><g id="Group_173" data-name="Group 173"><path id="Path_151" data-name="Path 151" class="cls-7" d="M29.56,5.35A5.33,5.33,0,1,1,24.23,0h0a5.33,5.33,0,0,1,5.33,5.35h0" transform="translate(0 0)"/></g></g></g></g><g id="Group_178" data-name="Group 178" class="cls-5"><g id="Group_177" data-name="Group 177"><g class="cls-8"><g id="Group_176" data-name="Group 176"><path id="Path_152" data-name="Path 152" class="cls-9" d="M40.15,11a8.35,8.35,0,1,1-8.34-8.37A8.35,8.35,0,0,1,40.15,11h0" transform="translate(0 0)"/><path id="Path_153" data-name="Path 153" class="cls-9" d="M40.15,11a8.35,8.35,0,1,1-8.34-8.37A8.35,8.35,0,0,1,40.15,11h0" transform="translate(0 0)"/></g></g></g></g><path id="Path_154" data-name="Path 154" class="cls-10" d="M13.2,10h-.31A5.41,5.41,0,0,0,9.8,11.24,7.14,7.14,0,0,0,7.42,16a17.67,17.67,0,0,0,1.25,8c.3.82.78,3.28,1.49,5.71s1.63,4.95,3.31,6.25a.73.73,0,0,0,.42.16,5.82,5.82,0,0,0,1-.06,1.14,1.14,0,0,0,.54-.2,1.29,1.29,0,0,0,.45-.91,27,27,0,0,1,.67-6,8.33,8.33,0,0,1,.7-1.94c.24-.41.39-.45.39-.45s.16,0,.4.45a8.33,8.33,0,0,1,.7,1.94,26.92,26.92,0,0,1,.67,6,1.26,1.26,0,0,0,.45.92,1.14,1.14,0,0,0,.54.2,7,7,0,0,0,1,.05.72.72,0,0,0,.42-.15c1.68-1.3,2.6-3.82,3.31-6.25s1.18-4.89,1.49-5.72a17.67,17.67,0,0,0,1.25-8,7.11,7.11,0,0,0-2.38-4.76c-2.27-1.86-5.5-1.55-7.86.51A6.73,6.73,0,0,0,13.2,10" transform="translate(0 0)"/><path id="Path_155" data-name="Path 155" class="cls-4" d="M21.61,16.56a.48.48,0,0,1-.42-.25c-.18-.35-.48-.78-.85-.8s-1.11.62-1.28.85a.47.47,0,1,1-.76-.55,2.83,2.83,0,0,1,2.1-1.25A2.09,2.09,0,0,1,22,15.87a.47.47,0,0,1-.2.63.46.46,0,0,1-.22.06" transform="translate(0 0)"/><path id="Path_156" data-name="Path 156" class="cls-4" d="M16.16,16.56a.46.46,0,0,1-.41-.26c-.27-.51-.56-.78-.86-.8-.51,0-1.11.63-1.27.86a.47.47,0,0,1-.77-.55A2.8,2.8,0,0,1,15,14.56a2.06,2.06,0,0,1,1.62,1.31.47.47,0,0,1-.2.63.43.43,0,0,1-.22.06" transform="translate(0 0)"/><path id="Path_157" data-name="Path 157" class="cls-4" d="M17,22a5.51,5.51,0,0,1-3.34-1.23.48.48,0,0,1-.13-.65.47.47,0,0,1,.66-.13h0l0,0a4.39,4.39,0,0,0,3.41,1c2.39-.4,4.09-2.87,4.11-2.89a.47.47,0,0,1,.66-.1.47.47,0,0,1,.12.63c-.08.12-1.94,2.83-4.73,3.29A5.39,5.39,0,0,1,17,22" transform="translate(0 0)"/></g></g></g></svg>