<svg id="Layer_1" data-name="Layer 1" xmlns="http://www.w3.org/2000/svg" xmlns:xlink="http://www.w3.org/1999/xlink" viewBox="0 0 40 40"><defs><style>.cls-1{fill:none;}.cls-2{fill:#9ca2a3;}.cls-3{opacity:0.6;}.cls-4{clip-path:url(#clip-path);}.cls-5{fill:#3e4141;}.cls-6{clip-path:url(#clip-path-2);}.cls-7{fill:#cce09d;}.cls-8{fill:#fff;}</style><clipPath id="clip-path" transform="translate(0 0)"><rect class="cls-1" x="18.83" width="10.62" height="10.7"/></clipPath><clipPath id="clip-path-2" transform="translate(0 0)"><rect class="cls-1" x="23.38" y="2.58" width="16.62" height="16.74"/></clipPath></defs><g id="Group_181" data-name="Group 181"><g id="Group_180" data-name="Group 180"><g id="Group_179" data-name="Group 179"><path id="Path_150" data-name="Path 150" class="cls-2" d="M35.19,22.28A17.6,17.6,0,1,1,17.6,4.56h0A17.66,17.66,0,0,1,35.2,22.28" transform="translate(0 0)"/><g id="Group_175" data-name="Group 175" class="cls-3"><g id="Group_174" data-name="Group 174"><g class="cls-4"><g id="Group_173" data-name="Group 173"><path id="Path_151" data-name="Path 151" class="cls-5" d="M29.45,5.35A5.31,5.31,0,1,1,24.14,0h0a5.33,5.33,0,0,1,5.31,5.35h0" transform="translate(0 0)"/></g></g></g></g><g id="Group_178" data-name="Group 178" class="cls-3"><g id="Group_177" data-name="Group 177"><g class="cls-6"><g id="Group_176" data-name="Group 176"><path id="Path_152" data-name="Path 152" class="cls-7" d="M40,11a8.31,8.31,0,1,1-8.31-8.37A8.34,8.34,0,0,1,40,11h0" transform="translate(0 0)"/><path id="Path_153" data-name="Path 153" class="cls-7" d="M40,11a8.31,8.31,0,1,1-8.31-8.37A8.34,8.34,0,0,1,40,11h0" transform="translate(0 0)"/></g></g></g></g><path id="Path_154" data-name="Path 154" class="cls-8" d="M13.15,10h-.31a5.38,5.38,0,0,0-3.08,1.22A7.17,7.17,0,0,0,7.39,16a17.81,17.81,0,0,0,1.25,8c.3.82.77,3.28,1.48,5.71s1.62,4.95,3.3,6.25a.7.7,0,0,0,.42.16,5.65,5.65,0,0,0,1-.06,1.14,1.14,0,0,0,.54-.2,1.29,1.29,0,0,0,.45-.91,27,27,0,0,1,.67-6,7.9,7.9,0,0,1,.7-1.94c.23-.41.38-.45.39-.45s.15,0,.39.45a8.33,8.33,0,0,1,.7,1.94,26.91,26.91,0,0,1,.66,6,1.29,1.29,0,0,0,.45.92,1.18,1.18,0,0,0,.54.2,7,7,0,0,0,1,.05.66.66,0,0,0,.41-.15c1.68-1.3,2.59-3.82,3.3-6.25s1.18-4.89,1.49-5.72a17.64,17.64,0,0,0,1.24-8,7.09,7.09,0,0,0-2.36-4.76c-2.27-1.86-5.49-1.55-7.84.51A6.68,6.68,0,0,0,13.15,10" transform="translate(0 0)"/><path id="Path_155" data-name="Path 155" class="cls-2" d="M21.53,16.56a.48.48,0,0,1-.42-.25c-.18-.35-.48-.78-.85-.8s-1.1.62-1.27.85a.47.47,0,0,1-.65.11.48.48,0,0,1-.11-.66,2.83,2.83,0,0,1,2.1-1.25,2.08,2.08,0,0,1,1.61,1.31.47.47,0,0,1-.2.63.39.39,0,0,1-.21.06" transform="translate(0 0)"/><path id="Path_156" data-name="Path 156" class="cls-2" d="M16.1,16.56a.46.46,0,0,1-.41-.26c-.27-.51-.55-.78-.85-.8-.51,0-1.11.63-1.28.86a.45.45,0,0,1-.65.09.47.47,0,0,1-.11-.64c.1-.14,1-1.33,2.1-1.25a2.06,2.06,0,0,1,1.62,1.31.47.47,0,0,1-.2.63.43.43,0,0,1-.22.06" transform="translate(0 0)"/><path id="Path_157" data-name="Path 157" class="cls-2" d="M16.89,22a5.45,5.45,0,0,1-3.32-1.23.48.48,0,0,1-.13-.65.46.46,0,0,1,.65-.13h0l0,0a4.34,4.34,0,0,0,3.39,1c2.38-.4,4.08-2.87,4.1-2.89a.45.45,0,0,1,.65-.1.47.47,0,0,1,.12.63c-.07.12-1.93,2.83-4.71,3.29a5.29,5.29,0,0,1-.8.06" transform="translate(0 0)"/></g></g></g></svg>