<svg xmlns="http://www.w3.org/2000/svg" viewBox="0 0 595.27551 340.12244"><path d="M-154.78331,188.70346V135.03909h14.9641v-15.077h-14.9641v-4.13343c0-7.36258,4.644-8.26681,9.67506-8.26681a35.28509,35.28509,0,0,1,6.06305.51675V93.64484a110.65576,110.65576,0,0,0-12.51309-.902c-20.36873,0-23.849,10.95315-23.849,22.44v4.77924h-11.48108v15.077h11.48108v53.66437Zm43.70531,0V146.00415a22.97242,22.97242,0,0,1,18.31814-9.41708c1.29,0,4.64405.258,5.41806.387l.258-18.431h-.645c-12.9001,0-19.47914,7.09335-23.22017,12.89706h-.129v-11.478h-20.753v68.74136Zm52.66961,0V119.9621h-20.624v68.74136Zm.129-78.17459V93.9039h-20.882v16.625ZM-15.225,190.12244c11.99707,0,21.93015-3.4791,29.92823-10.30857L6.70517,167.426c-4.64407,4.26136-12.25507,8.2645-20.38214,8.2645-8.64308,0-14.96411-4.39053-15.99613-15.75424H15.8642v-3.092c0-31.21387-17.41507-38.30121-31.6052-38.30121s-34.57225,9.14911-34.57225,35.85339c0,26.57715,17.15712,35.726,35.08827,35.726ZM-29.41512,147.6973C-27.86707,137.62384-22.32,133.362-15.87,133.362c7.74006,0,12.12613,4.64923,13.15812,14.33527ZM44.8291,188.70346V142.52109c4.64728-3.999,9.42365-6.837,14.97458-6.837,5.80914,0,8.13269,3.225,8.13269,9.417v43.60236h20.624v-50.1814c0-14.17932-8.3785-19.979-19.97952-19.979-12.00448,0-19.62088,6.83072-23.7518,12.24359V119.9621h-20.753v68.74136Zm78.15152,1.032c10.19711,0,16.651-5.15469,21.16886-11.34033,0,3.47128.64453,8.63132,1.54681,10.30832h21.27026c-1.548-3.48306-2.064-8.5141-2.064-16.77011V93.25888H144.14948v35.33685c-4.9051-6.70169-11.61713-10.05267-20.91071-10.05267-15.734,0-26.69061,12.63025-26.69061,36.36215,0,23.74765,10.82763,34.83026,26.43246,34.83026Zm7.74466-15.593c-9.29361,0-13.4241-7.87229-13.4241-19.3581,0-12.51825,4.51773-19.10028,13.16592-19.10028,5.42127,0,9.16455,2.06513,13.68238,6.32395v25.42364c-3.35615,3.48444-8.13205,6.71079-13.4242,6.71079Zm72.71649,15.98c15.87146,0,30.30756-6.571,30.30756-23.20765,0-15.61486-14.30713-18.712-27.85462-21.03488-8.52075-1.54858-12.26461-3.22619-12.26461-7.35574,0-3.74237,3.35659-6.06516,9.29525-6.06516,6.45508,0,13.29456,2.7099,20.2547,7.48469l8.12024-11.73673c-7.60467-6.05606-16.11157-9.66391-30.18237-9.66391-15.35031,0-26.69287,7.98883-26.69287,21.78778,0,16.131,13.92038,19.22821,26.95111,21.55106,9.42438,1.67764,13.03915,3.48428,13.03915,8.25909,0,4.51666-4.51846,6.71051-10.97354,6.71051a38.06269,38.06269,0,0,1-23.861-8.90436L171.329,179.55728c6.9628,5.92679,17.01639,10.56516,32.11273,10.56516ZM-138.70857,68.106c15.73417,0,26.69078-11.73908,26.69078-35.47524,0-23.73127-10.82771-35.71713-26.43262-35.71713-10.19714,0-16.651,5.67078-21.16875,11.98586v-37.27h-20.753V67.074h20.753v-8.1181c5.16312,5.79611,11.617,9.15012,20.91059,9.15012Zm-7.09928-15.593c-5.55032,0-9.29359-2.06488-13.81131-6.32367V20.76572c3.4851-3.48445,8.261-6.71109,13.55317-6.71109,9.29359,0,13.29515,7.22731,13.29515,18.71312,0,12.51825-4.3888,19.74528-13.037,19.74528Zm59.964,15.593c10.19708,0,17.68426-3.999,24.00973-11.09406A32.95321,32.95321,0,0,0-60.2874,67.074h20.62526c-1.419-3.47915-1.935-8.5047-1.935-16.75485V23.86346c0-17.67134-7.73387-26.94984-26.5625-26.94984-17.16867,0-27.48056,6.05682-34.31216,12.24245l8.76509,11.86824c6.316-4.904,13.79993-8.5177,22.578-8.5177,6.71265,0,9.29454,3.22654,9.29454,8.25959v1.67769c-30.19687,2.452-43.60231,11.22753-43.60231,27.101,0,11.7241,9.02291,18.56114,19.59258,18.56114Zm8.26072-15.593c-4.51814,0-7.61628-2.19391-7.61628-6.58166,0-6.32355,6.97082-10.45322,23.36529-12.13089V46.57663c-3.4855,3.48441-8.52,5.9364-15.749,5.9364ZM-93.9554-8.26254h17.528v-19.076h-17.528v19.076Zm27.34819,0h17.528v-19.076h-17.528v19.076ZM-5.34857,67.074V20.89168c4.64728-3.999,9.42364-6.83705,15.10367-6.83705s8.00363,3.225,8.00363,9.41706V67.074h20.753V16.89264c0-14.17937-8.3786-19.979-20.10855-19.979-12.00446,0-19.62085,6.83069-23.75177,12.24361V-28.37054h-20.753V67.074Zm80.18634,0V24.37469a22.97235,22.97235,0,0,1,18.31811-9.41706c1.29,0,4.64405.258,5.418.387l.258-18.431h-.645C85.2868-3.08638,78.70779,4.007,74.96677,9.8107h-.129V-1.66739h-20.753V67.074ZM-151.42984-53.13643c18.18912,0,26.70317-10.17987,31.0892-20.88441l-17.15712-5.93634c-2.967,9.29162-7.99806,12.25976-13.54509,12.25976-9.54606,0-13.41609-8.77539-13.41609-21.03515,0-13.67933,5.289-20.77729,13.67407-20.77729,6.06305,0,10.06209,2.8393,12.77111,11.61472l17.41513-5.80725c-3.999-11.09091-11.2231-21.01343-29.92823-21.01343-15.22113,0-34.68512,8.37613-34.68512,35.85419,0,26.705,17.65937,35.7252,33.78214,35.7252Zm58.991-1.419V-150h-20.624v95.44456Zm27.87637,1.032c10.19707,0,17.68425-3.999,24.00974-11.09408a32.95366,32.95366,0,0,0,1.54678,10.06208h20.62527c-1.419-3.4792-1.935-8.50471-1.935-16.75486V-97.766c0-17.67133-7.73389-26.94983-26.56252-26.94983-17.16865,0-27.48051,6.05682-34.31216,12.24246l8.76512,11.86823c6.316-4.904,13.79989-8.5177,22.578-8.5177,6.71265,0,9.29453,3.22656,9.29453,8.25958v1.67767C-70.74956-96.73355-84.155-87.958-84.155-72.08463c0,11.72416,9.02292,18.56119,19.59259,18.56119Zm8.26074-15.593c-4.51815,0-7.6163-2.19388-7.6163-6.58167,0-6.32355,6.97084-10.45322,23.3653-12.13089v12.77615c-3.48551,3.48444-8.52,5.93641-15.749,5.93641Zm67.51361,15.98c12.00461,0,19.621-6.83548,23.7518-12.12331v10.7043H55.71677v-68.74137H34.96371v46.69833c-4.64718,3.999-9.42355,6.96606-14.97451,6.96606-5.80909,0-8.13275-3.354-8.13275-9.54608v-44.11831h-20.753v50.18136c0,14.17531,8.37854,19.979,20.10846,19.979Zm80.04737-.387c10.19714,0,16.651-5.15468,21.16888-11.3403,0,3.47125.64453,8.63129,1.54682,10.3083h21.27023c-1.548-3.483-2.064-8.51406-2.064-16.77009V-150h-20.753v35.33682c-4.90509-6.70169-11.61712-10.05264-20.91073-10.05264-15.734,0-26.69062,12.63025-26.69062,36.36215,0,23.74767,10.82767,34.83023,26.43247,34.83023Zm7.74466-15.593c-9.29361,0-13.42411-7.87229-13.42411-19.3581,0-12.51825,4.5177-19.10031,13.166-19.10031,5.42126,0,9.16452,2.06516,13.68237,6.32394v25.42365c-3.35617,3.48447-8.132,6.71082-13.42422,6.71082Zm68.02615,14.561v-68.74137h-20.624v68.74137Zm.129-78.17457v-16.625h-20.882v16.625Zm32.3526,79.59358c12.00458,0,19.621-6.83548,23.75177-12.12331v10.7043h20.75305v-68.74137H223.26349v46.69833c-4.64716,3.999-9.42355,6.96606-14.97449,6.96606-5.80908,0-8.13275-3.354-8.13275-9.54608v-44.11831H179.4032v50.18136c0,14.17531,8.37857,19.979,20.10852,19.979Zm87.45618,0c15.87158,0,30.30761-6.571,30.30761-23.20769,0-15.6148-14.30725-18.712-27.85461-21.03485-8.52069-1.54855-12.26465-3.22619-12.26465-7.35574,0-3.74237,3.35663-6.06513,9.29529-6.06513,6.45508,0,13.29449,2.70987,20.25464,7.48465l8.12024-11.73675c-7.60462-6.056-16.11152-9.66388-30.18225-9.66388-15.35035,0-26.69294,7.9888-26.69294,21.78778,0,16.131,13.92041,19.22818,26.95111,21.55106,9.42444,1.67761,13.03919,3.48428,13.03919,8.25909,0,4.51666-4.51856,6.71048-10.97363,6.71048a38.06254,38.06254,0,0,1-23.861-8.90433l-8.25171,11.61016c6.96277,5.92678,17.01642,10.56515,32.11268,10.56515Zm-523.70374,232.8723h-16.496v-25.8002H-278v-16.367h24.76816V111.76852h16.496V137.5687h24.76817v16.367h-24.76817v25.8002Z" transform="translate(278 150)"/></svg>