<svg xmlns="http://www.w3.org/2000/svg" viewBox="0 0 76.1 82.08005"><defs><style>.a{fill:#5ec4e7;}</style></defs><path class="a" d="M43.952,82H73.144V52.808H43.952Zm-35.1,0h29.2V52.808H8.852Zm35.1-53.464c2.952-.328,6.068-.656,8.036-.82,7.544-.82,14.6-7.708,15.416-15.416.82-7.544-4.756-13.12-12.3-12.3a18.288,18.288,0,0,0-14.1,10.5C38.544,4.924,32.968.5,26.904,0c-7.544-.82-13.12,4.756-12.3,12.3S22.312,26.9,30.02,27.716c1.968.164,5.084.656,8.036.82v.656h5.9C43.952,29.356,43.952,29.028,43.952,28.536Zm9.84-21.484a5.8,5.8,0,0,1,6.724,6.724,10.1,10.1,0,0,1-8.364,8.364,5.8,5.8,0,0,1-6.724-6.724A9.915,9.915,0,0,1,53.792,7.052ZM29.852,21.976a10.1,10.1,0,0,1-8.364-8.364,5.8,5.8,0,0,1,6.724-6.724,10.1,10.1,0,0,1,8.364,8.364C37.064,19.516,34.112,22.632,29.852,21.976Zm14.1,7.38V46.904h35.1V29.356Zm-41,17.548h35.1V29.356H2.952Z" transform="translate(-2.952 0.08005)"/></svg>